{"glyphs":{"0":{"ha":514,"x_min":56,"x_max":458,"o":"m 458 165 q 444 97 458 129 q 407 42 431 65 q 351 4 383 18 q 283 -10 319 -10 l 231 -10 q 163 4 194 -10 q 107 42 131 18 q 69 97 83 65 q 56 165 56 129 l 56 807 q 69 875 56 843 q 107 931 83 907 q 163 968 131 954 q 231 982 194 982 l 283 982 q 351 968 319 982 q 407 931 383 954 q 444 875 431 907 q 458 807 458 843 l 458 165 m 296 800 q 286 824 296 814 q 263 833 276 833 l 251 833 q 228 824 238 833 q 218 800 218 814 l 218 172 q 228 149 218 158 q 251 139 238 139 l 263 139 q 286 149 276 139 q 296 172 296 158 l 296 800 z "},"1":{"ha":392,"x_min":56,"x_max":336,"o":"m 318 972 q 336 953 336 969 l 336 19 q 317 0 336 0 l 193 0 q 174 19 174 0 l 174 717 q 128 689 156 703 q 78 671 101 675 q 63 674 68 668 q 56 688 56 678 l 56 792 q 60 804 56 799 q 72 811 65 810 q 131 846 104 824 q 174 892 154 864 q 200 961 194 921 q 215 972 204 972 l 318 972 l 318 972 z "},"2":{"ha":515,"x_min":56,"x_max":460,"o":"m 322 346 q 314 333 318 339 q 306 319 310 326 q 271 257 285 286 q 249 206 257 228 q 232 157 239 181 l 447 157 q 460 144 460 157 l 460 13 q 447 0 460 0 l 81 0 q 68 13 71 0 q 63 65 64 39 q 64 111 63 90 q 69 158 65 136 q 79 208 72 185 q 93 251 86 232 q 111 292 101 274 q 179 407 147 357 q 236 493 211 457 q 290 565 265 535 q 296 594 297 581 q 296 636 294 608 l 296 800 q 286 824 296 814 q 263 833 276 833 l 251 833 q 228 824 238 833 q 218 800 218 814 l 218 708 q 200 683 218 689 l 74 650 q 56 664 56 644 l 56 807 q 69 875 56 843 q 107 931 83 907 q 163 968 131 954 q 231 982 194 982 l 283 982 q 351 968 319 982 q 407 931 383 954 q 444 875 431 907 q 458 807 458 843 l 458 724 l 458 642 q 448 558 458 599 q 414 482 438 518 q 369 414 393 449 q 322 346 344 379 z "},"3":{"ha":514,"x_min":56,"x_max":458,"o":"m 458 165 q 444 97 458 129 q 407 42 431 65 q 351 4 383 18 q 283 -10 319 -10 l 231 -10 q 163 4 194 -10 q 107 42 131 18 q 69 97 83 65 q 56 165 56 129 l 56 317 q 74 342 56 336 l 200 375 q 218 361 218 381 l 218 172 q 228 149 218 158 q 251 139 238 139 l 263 139 q 286 149 276 139 q 296 172 296 158 l 296 411 q 294 433 296 422 q 289 450 293 444 q 281 457 286 453 q 264 461 276 461 l 199 461 q 187 466 192 461 q 182 478 182 471 l 182 581 q 187 592 182 588 q 199 597 192 597 l 264 597 q 280 602 274 597 q 289 610 286 607 q 296 639 296 617 l 296 800 q 286 824 296 814 q 263 833 276 833 l 251 833 q 228 824 238 833 q 218 800 218 814 l 218 708 q 200 683 218 689 l 74 650 q 56 664 56 644 l 56 807 q 69 875 56 843 q 107 931 83 907 q 163 968 131 954 q 231 982 194 982 l 283 982 q 351 968 319 982 q 407 931 383 954 q 444 875 431 907 q 458 807 458 843 l 458 650 q 458 631 458 640 q 456 614 457 622 q 429 558 449 581 q 389 531 411 540 q 429 507 411 522 q 451 471 442 494 q 458 411 458 440 l 458 165 z "},"4":{"ha":542,"x_min":28,"x_max":486,"o":"m 481 342 q 486 329 486 336 l 486 214 q 481 200 486 206 q 468 194 472 194 l 424 194 l 424 19 q 404 0 424 0 l 281 0 q 261 19 261 0 l 261 194 l 46 194 q 33 200 39 194 q 28 214 28 204 l 28 332 q 29 342 28 339 q 31 346 29 344 q 120 551 85 451 q 176 731 156 650 q 206 871 197 813 q 218 954 215 929 q 221 963 218 958 q 227 969 224 965 q 238 972 231 972 l 404 972 q 424 953 424 972 l 424 347 l 468 347 q 481 342 472 347 m 260 667 q 238 572 251 624 q 206 471 226 528 q 158 347 186 414 l 260 347 l 260 667 z "},"5":{"ha":515,"x_min":56,"x_max":460,"o":"m 361 618 q 435 568 410 604 q 458 482 460 532 l 458 165 q 444 97 458 129 q 407 42 431 65 q 351 4 383 18 q 283 -10 319 -10 l 231 -10 q 163 4 194 -10 q 107 42 131 18 q 69 97 83 65 q 56 165 56 129 l 56 222 q 74 247 56 242 l 200 281 q 218 267 218 286 l 218 172 q 228 149 218 158 q 251 139 238 139 l 263 139 q 286 149 276 139 q 296 172 296 158 l 296 446 q 288 476 296 468 q 278 483 285 479 q 263 488 272 488 l 251 488 q 235 483 242 488 q 226 475 229 478 q 218 446 218 467 l 218 407 q 214 396 218 400 q 203 394 210 392 l 71 429 q 56 449 56 435 l 56 953 q 75 972 56 972 l 157 972 l 408 972 q 428 953 428 972 l 428 835 q 408 815 428 815 l 218 815 l 218 606 q 308 625 260 625 q 361 618 336 625 z "},"6":{"ha":514,"x_min":56,"x_max":458,"o":"m 231 -10 q 163 4 194 -10 q 107 42 131 18 q 69 97 83 65 q 56 165 56 129 l 56 807 q 69 875 56 843 q 107 931 83 907 q 163 968 131 954 q 231 982 194 982 l 283 982 q 351 968 319 982 q 407 931 383 954 q 444 875 431 907 q 458 807 458 843 l 458 750 q 440 725 458 731 l 314 692 q 296 706 296 686 l 296 800 q 286 824 296 814 q 263 833 276 833 l 251 833 q 228 824 238 833 q 218 800 218 814 l 218 596 q 308 615 260 615 q 361 608 336 615 q 458 472 458 581 l 458 165 q 444 97 458 129 q 407 42 431 65 q 351 4 383 18 q 283 -10 319 -10 l 231 -10 m 218 172 q 228 149 218 158 q 251 139 238 139 l 263 139 q 286 149 276 139 q 296 172 296 158 l 296 436 q 288 467 296 458 q 278 474 285 469 q 263 478 272 478 l 251 478 q 235 473 242 478 q 226 465 229 468 q 218 436 218 457 l 218 172 z "},"7":{"ha":440,"x_min":28,"x_max":406,"o":"m 147 0 q 132 8 138 0 q 129 18 129 13 q 136 275 129 147 q 163 529 143 403 q 200 707 179 633 q 233 819 221 781 l 46 819 q 33 825 38 819 q 28 838 28 831 l 28 954 q 33 967 28 958 q 46 972 39 972 l 386 972 q 400 967 394 972 q 406 954 406 958 l 406 825 q 358 672 376 747 q 327 532 339 596 q 310 422 315 468 q 304 358 306 376 q 295 192 297 275 q 293 18 293 110 q 275 0 293 0 l 147 0 l 147 0 z "},"8":{"ha":514,"x_min":56,"x_max":458,"o":"m 429 558 q 389 531 411 540 q 429 507 411 522 q 451 471 442 494 q 458 411 458 440 l 458 165 q 444 97 458 129 q 407 42 431 65 q 351 4 383 18 q 283 -10 319 -10 l 231 -10 q 163 4 194 -10 q 107 42 131 18 q 69 97 83 65 q 56 165 56 129 l 56 411 q 63 471 56 440 q 72 491 67 482 q 85 507 76 500 q 125 531 103 522 q 85 558 101 540 q 58 614 65 581 q 56 631 57 622 q 56 650 56 640 l 56 807 q 69 875 56 843 q 107 931 83 907 q 163 968 131 954 q 231 982 194 982 l 283 982 q 351 968 319 982 q 407 931 383 954 q 444 875 431 907 q 458 807 458 843 l 458 650 q 458 631 458 640 q 456 614 457 622 q 429 558 449 581 m 296 404 q 294 426 296 415 q 289 443 293 438 q 281 450 286 446 q 264 454 276 454 l 250 454 q 233 450 238 454 q 225 443 228 446 q 219 426 221 438 q 218 404 218 415 l 218 172 q 228 149 218 158 q 251 139 238 139 l 263 139 q 286 149 276 139 q 296 172 296 158 l 296 404 m 296 800 q 286 824 296 814 q 263 833 276 833 l 251 833 q 228 824 238 833 q 218 800 218 814 l 218 649 q 225 619 218 626 q 234 612 228 617 q 250 607 240 607 l 264 607 q 280 612 274 607 q 289 619 286 617 q 296 649 296 626 l 296 800 z "},"9":{"ha":514,"x_min":56,"x_max":458,"o":"m 283 982 q 351 968 319 982 q 407 931 383 954 q 444 875 431 907 q 458 807 458 843 l 458 165 q 444 97 458 129 q 407 42 431 65 q 351 4 383 18 q 283 -10 319 -10 l 231 -10 q 163 4 194 -10 q 107 42 131 18 q 69 97 83 65 q 56 165 56 129 l 56 222 q 74 247 56 242 l 200 281 q 218 267 218 286 l 218 172 q 228 149 218 158 q 251 139 238 139 l 263 139 q 286 149 276 139 q 296 172 296 158 l 296 376 q 206 357 253 357 q 153 364 178 357 q 56 500 56 390 l 56 807 q 69 875 56 843 q 107 931 83 907 q 163 968 131 954 q 231 982 194 982 l 283 982 m 296 800 q 286 824 296 814 q 263 833 276 833 l 251 833 q 228 824 238 833 q 218 800 218 814 l 218 536 q 226 506 218 514 q 235 499 229 503 q 251 494 242 494 l 263 494 q 278 499 272 494 q 288 507 285 504 q 296 536 296 515 l 296 800 z "},"B":{"ha":507,"x_min":63,"x_max":465,"o":"m 426 485 q 456 439 446 465 q 465 381 465 413 l 465 175 q 451 107 465 139 q 414 51 438 75 q 358 14 390 28 q 290 0 326 0 l 82 0 q 63 19 63 0 l 63 953 q 82 972 63 972 l 290 972 q 358 958 326 972 q 414 921 390 944 q 451 865 438 897 q 465 797 465 833 l 465 658 q 426 551 465 594 q 376 515 406 529 q 426 485 407 504 m 303 403 q 293 426 303 417 q 269 436 283 436 l 225 436 l 225 149 l 269 149 q 293 158 283 149 q 303 182 303 168 l 303 403 m 303 790 q 293 814 303 804 q 269 824 283 824 l 225 824 l 225 588 l 269 588 q 293 597 283 588 q 303 621 303 607 l 303 790 z "},"C":{"ha":493,"x_min":49,"x_max":451,"o":"m 276 982 q 344 968 313 982 q 400 931 376 954 q 438 875 424 907 q 451 807 451 843 l 451 696 q 433 671 451 676 l 307 651 q 289 665 289 646 l 289 800 q 279 824 289 814 q 256 833 269 833 l 244 833 q 221 824 231 833 q 211 800 211 814 l 211 172 q 221 149 211 158 q 244 139 231 139 l 256 139 q 279 149 269 139 q 289 172 289 158 l 289 367 q 307 381 289 386 l 433 364 q 451 339 451 358 l 451 165 q 438 97 451 129 q 400 42 424 65 q 344 4 376 18 q 276 -10 313 -10 l 224 -10 q 156 4 188 -10 q 100 42 124 18 q 63 97 76 65 q 49 165 49 129 l 49 807 q 63 875 49 843 q 100 931 76 907 q 156 968 124 954 q 224 982 188 982 l 276 982 l 276 982 z "},"D":{"ha":514,"x_min":63,"x_max":465,"o":"m 290 972 q 358 958 326 972 q 414 921 390 944 q 451 865 438 897 q 465 797 465 833 l 465 175 q 451 107 465 139 q 414 51 438 75 q 358 14 390 28 q 290 0 326 0 l 82 0 q 63 19 63 0 l 63 953 q 82 972 63 972 l 290 972 m 303 790 q 293 814 303 804 q 269 824 283 824 l 225 824 l 225 149 l 269 149 q 293 158 283 149 q 303 182 303 168 l 303 790 z "},"E":{"ha":458,"x_min":63,"x_max":403,"o":"m 383 163 q 403 143 403 163 l 403 19 q 383 0 403 0 l 82 0 q 63 19 63 0 l 63 953 q 82 972 63 972 l 383 972 q 403 953 403 972 l 403 829 q 383 810 403 810 l 225 810 l 225 610 l 363 610 q 382 590 382 610 l 382 467 q 363 447 382 447 l 225 447 l 225 163 l 383 163 l 383 163 z "},"F":{"ha":444,"x_min":63,"x_max":403,"o":"m 383 972 q 403 953 403 972 l 403 829 q 383 810 403 810 l 225 810 l 225 610 l 363 610 q 382 590 382 610 l 382 467 q 363 447 382 447 l 225 447 l 225 19 q 206 0 225 0 l 82 0 q 63 19 63 0 l 63 953 q 82 972 63 972 l 383 972 l 383 972 z "},"G":{"ha":500,"x_min":49,"x_max":451,"o":"m 276 982 q 344 968 313 982 q 400 931 376 954 q 438 875 424 907 q 451 807 451 843 l 451 763 q 433 738 451 743 l 307 692 q 289 706 289 686 l 289 800 q 279 824 289 814 q 256 833 269 833 l 244 833 q 221 824 231 833 q 211 800 211 814 l 211 172 q 221 149 211 158 q 244 139 231 139 l 256 139 q 279 149 269 139 q 289 172 289 158 l 289 419 l 250 419 l 250 578 l 432 578 q 451 558 451 578 l 451 165 q 438 97 451 129 q 400 42 424 65 q 344 4 376 18 q 276 -10 313 -10 l 224 -10 q 156 4 188 -10 q 100 42 124 18 q 63 97 76 65 q 49 165 49 129 l 49 807 q 63 875 49 843 q 100 931 76 907 q 156 968 124 954 q 224 982 188 982 l 276 982 l 276 982 z "},"H":{"ha":542,"x_min":63,"x_max":479,"o":"m 460 972 q 479 953 479 972 l 479 19 q 460 0 479 0 l 336 0 q 317 19 317 0 l 317 417 l 225 417 l 225 19 q 206 0 225 0 l 82 0 q 63 19 63 0 l 63 953 q 82 972 63 972 l 206 972 q 225 953 225 972 l 225 579 l 317 579 l 317 953 q 336 972 317 972 l 460 972 l 460 972 z "},"I":{"ha":288,"x_min":63,"x_max":225,"o":"m 225 19 q 206 0 225 0 l 82 0 q 63 19 63 0 l 63 953 q 82 972 63 972 l 206 972 q 225 953 225 972 l 225 19 z "},"J":{"ha":493,"x_min":35,"x_max":438,"o":"m 418 972 q 438 953 438 972 l 438 165 q 424 97 438 129 q 386 42 410 65 q 331 4 363 18 q 263 -10 299 -10 l 210 -10 q 142 4 174 -10 q 86 42 110 18 q 49 97 63 65 q 35 165 35 129 l 35 342 q 53 367 35 361 l 179 400 q 197 386 197 406 l 197 172 q 207 149 197 158 q 231 139 217 139 l 242 139 q 265 149 256 139 q 275 172 275 158 l 275 953 q 294 972 275 972 l 418 972 z "},"K":{"ha":560,"x_min":63,"x_max":532,"o":"m 518 972 q 529 966 526 972 q 529 953 532 960 l 343 543 l 526 19 q 525 6 529 13 q 513 0 521 0 l 375 0 q 360 5 367 0 q 350 17 353 10 l 249 331 l 225 272 l 225 19 q 206 0 225 0 l 82 0 q 63 19 63 0 l 63 953 q 82 972 63 972 l 206 972 q 225 953 225 972 l 225 654 l 353 956 q 379 972 360 972 l 518 972 l 518 972 z "},"L":{"ha":458,"x_min":69,"x_max":424,"o":"m 404 163 q 424 143 424 163 l 424 19 q 404 0 424 0 l 217 0 l 214 0 l 213 0 l 89 0 q 69 19 69 0 l 69 953 q 89 972 69 972 l 213 972 q 232 953 232 972 l 232 163 l 404 163 l 404 163 z "},"M":{"ha":667,"x_min":63,"x_max":604,"o":"m 585 972 q 604 953 604 972 l 604 19 q 585 0 604 0 l 451 0 q 432 19 432 0 l 432 458 l 340 100 q 333 93 338 93 q 326 100 329 93 l 235 458 l 235 19 q 215 0 235 0 l 82 0 q 63 19 63 0 l 63 953 q 82 972 63 972 l 200 972 q 215 966 208 972 q 224 953 221 960 l 333 456 l 443 953 q 452 966 446 960 q 467 972 458 972 l 585 972 l 585 972 z "},"N":{"ha":569,"x_min":63,"x_max":507,"o":"m 488 972 q 507 953 507 972 l 507 19 q 488 0 507 0 l 399 0 q 383 6 390 0 q 372 18 375 11 l 225 478 l 225 19 q 206 0 225 0 l 82 0 q 63 19 63 0 l 63 953 q 82 972 63 972 l 174 972 q 190 967 182 972 q 200 954 197 961 l 344 508 l 344 953 q 364 972 344 972 l 488 972 l 488 972 z "},"O":{"ha":500,"x_min":49,"x_max":451,"o":"m 451 165 q 438 97 451 129 q 400 42 424 65 q 344 4 376 18 q 276 -10 313 -10 l 224 -10 q 156 4 188 -10 q 100 42 124 18 q 63 97 76 65 q 49 165 49 129 l 49 807 q 63 875 49 843 q 100 931 76 907 q 156 968 124 954 q 224 982 188 982 l 276 982 q 344 968 313 982 q 400 931 376 954 q 438 875 424 907 q 451 807 451 843 l 451 165 m 289 800 q 279 824 289 814 q 256 833 269 833 l 244 833 q 221 824 231 833 q 211 800 211 814 l 211 172 q 221 149 211 158 q 244 139 231 139 l 256 139 q 279 149 269 139 q 289 172 289 158 l 289 800 z "},"P":{"ha":493,"x_min":63,"x_max":465,"o":"m 290 972 q 358 958 326 972 q 414 921 390 944 q 451 865 438 897 q 465 797 465 833 l 465 571 q 451 503 465 535 q 414 447 438 471 q 358 410 390 424 q 290 396 326 396 l 225 396 l 225 19 q 206 0 225 0 l 82 0 q 63 19 63 0 l 63 953 q 82 972 63 972 l 290 972 m 303 790 q 293 814 303 804 q 269 824 283 824 l 225 824 l 225 544 l 269 544 q 293 554 283 544 q 303 578 303 564 l 303 790 z "},"Q":{"ha":506,"x_min":49,"x_max":457,"o":"m 453 -56 q 455 -70 457 -62 q 446 -81 453 -78 l 350 -124 q 319 -115 331 -132 l 249 -10 l 224 -10 q 156 4 188 -10 q 100 42 124 18 q 63 97 76 65 q 49 165 49 129 l 49 807 q 63 875 49 843 q 100 931 76 907 q 156 968 124 954 q 224 982 188 982 l 276 982 q 344 968 313 982 q 400 931 376 954 q 438 875 424 907 q 451 807 451 843 l 451 165 q 436 92 451 126 q 393 35 421 58 l 453 -56 m 211 172 q 221 149 211 158 q 244 139 231 139 l 256 139 q 279 149 269 139 q 289 172 289 158 l 289 800 q 279 824 289 814 q 256 833 269 833 l 244 833 q 221 824 231 833 q 211 800 211 814 l 211 172 z "},"R":{"ha":522,"x_min":61,"x_max":496,"o":"m 492 19 q 478 0 496 0 l 351 0 q 335 6 343 0 q 325 19 328 11 l 224 360 l 224 14 q 204 0 219 0 l 81 0 q 61 19 61 0 l 61 953 q 81 972 61 972 l 289 972 q 357 958 325 972 q 413 921 389 944 q 450 865 436 897 q 464 797 464 833 l 464 571 q 438 478 464 519 q 368 415 411 438 l 492 19 m 224 544 l 268 544 q 292 554 282 544 q 301 578 301 564 l 301 790 q 292 814 301 804 q 268 824 282 824 l 224 824 l 224 544 z "},"S":{"ha":486,"x_min":42,"x_max":444,"o":"m 269 982 q 338 968 306 982 q 393 931 369 954 q 431 875 417 907 q 444 807 444 843 l 444 754 q 426 729 444 735 l 300 696 q 282 710 282 690 l 282 800 q 272 824 282 814 q 249 833 263 833 l 238 833 q 214 824 224 833 q 204 800 204 814 l 204 674 q 210 647 206 658 q 225 625 214 636 l 407 489 q 435 449 429 469 q 444 404 442 429 l 444 165 q 431 97 444 129 q 393 42 417 65 q 338 4 369 18 q 269 -10 306 -10 l 217 -10 q 149 4 181 -10 q 93 42 117 18 q 56 97 69 65 q 42 165 42 129 l 42 299 q 60 324 42 318 l 186 357 q 204 343 204 363 l 204 172 q 214 149 204 158 q 238 139 224 139 l 249 139 q 272 149 263 139 q 282 172 282 158 l 282 356 q 276 388 281 374 q 260 413 272 401 l 81 550 q 51 589 60 569 q 42 640 42 608 l 42 807 q 56 875 42 843 q 93 931 69 907 q 149 968 117 954 q 217 982 181 982 l 269 982 l 269 982 z "},"T":{"ha":467,"x_min":35,"x_max":432,"o":"m 413 972 q 432 953 432 972 l 432 829 q 413 810 432 810 l 314 810 l 314 19 q 294 0 314 0 l 171 0 q 158 6 164 0 q 151 19 151 11 l 151 810 l 54 810 q 35 829 35 810 l 35 953 q 54 972 35 972 l 413 972 l 413 972 z "},"U":{"ha":500,"x_min":49,"x_max":451,"o":"m 432 972 q 451 953 451 972 l 451 165 q 438 97 451 129 q 400 42 424 65 q 344 4 376 18 q 276 -10 313 -10 l 224 -10 q 156 4 188 -10 q 100 42 124 18 q 63 97 76 65 q 49 165 49 129 l 49 953 q 68 972 49 972 l 192 972 q 211 953 211 972 l 211 172 q 221 149 211 158 q 244 139 231 139 l 256 139 q 279 149 269 139 q 289 172 289 158 l 289 953 q 308 972 289 972 l 432 972 l 432 972 z "},"V":{"ha":525,"x_min":13,"x_max":513,"o":"m 493 972 q 510 953 513 972 l 346 19 q 324 0 343 0 l 201 0 q 179 19 182 0 l 15 953 q 32 972 13 972 l 182 972 q 203 953 200 972 l 260 364 l 265 364 l 322 953 q 343 972 325 972 l 493 972 l 493 972 z "},"W":{"ha":790,"x_min":13,"x_max":778,"o":"m 758 972 q 775 953 778 972 l 611 19 q 589 0 608 0 l 467 0 q 444 19 447 0 l 396 365 l 394 365 l 346 19 q 324 0 343 0 l 201 0 q 179 19 182 0 l 15 953 q 32 972 13 972 l 182 972 q 203 953 200 972 l 265 386 l 271 386 l 318 953 q 339 972 321 972 l 451 972 q 472 953 469 972 l 519 386 l 525 386 l 588 953 q 608 972 590 972 l 758 972 l 758 972 z "},"X":{"ha":525,"x_min":40,"x_max":486,"o":"m 482 19 q 467 0 486 0 l 338 0 q 315 19 318 0 l 263 294 l 210 19 q 188 0 207 0 l 58 0 q 45 6 50 0 q 43 19 40 11 l 157 488 l 43 953 q 45 966 40 960 q 58 972 50 972 l 188 972 q 210 953 207 972 l 263 678 l 315 953 q 338 972 318 972 l 467 972 q 480 966 475 972 q 482 953 485 960 l 368 488 l 482 19 l 482 19 z "},"Y":{"ha":514,"x_min":13,"x_max":501,"o":"m 485 972 q 497 966 493 972 q 499 953 501 960 l 339 378 l 339 19 q 319 0 339 0 l 194 0 q 175 19 175 0 l 175 378 l 15 953 q 17 966 13 960 q 29 972 21 972 l 176 972 q 199 953 196 972 l 254 603 l 260 603 l 315 953 q 338 972 318 972 l 485 972 l 485 972 z "},"Z":{"ha":490,"x_min":42,"x_max":449,"o":"m 429 156 q 449 136 449 156 l 449 19 q 429 0 449 0 l 61 0 q 48 6 53 0 q 46 19 43 11 l 239 817 l 61 817 q 42 836 42 817 l 42 953 q 61 972 42 972 l 426 972 q 440 966 435 972 q 442 953 444 960 l 249 156 l 429 156 l 429 156 z "}," ":{"ha":183,"x_min":0,"x_max":0,"o":""},"!":{"ha":289,"x_min":56,"x_max":233,"o":"m 115 236 q 94 256 97 236 l 64 547 q 63 567 63 556 q 63 586 63 578 l 63 953 q 82 972 63 972 l 207 972 q 226 953 226 972 l 226 586 q 226 567 226 578 q 225 547 226 556 l 194 256 q 174 236 192 236 l 115 236 m 56 79 q 82 142 56 115 q 144 168 108 168 q 207 142 181 168 q 233 79 233 115 q 207 17 233 43 q 144 -10 181 -10 q 82 17 108 -10 q 56 79 56 43 z "},"\"":{"ha":386,"x_min":28,"x_max":360,"o":"m 47 661 q 28 681 28 661 l 28 953 q 47 972 28 972 l 151 972 q 168 953 171 972 l 118 681 q 96 661 115 661 l 47 661 m 236 661 q 217 681 217 661 l 217 953 q 236 972 217 972 l 340 972 q 357 953 360 972 l 307 681 q 285 661 304 661 l 236 661 z "},"#":{"ha":661,"x_min":28,"x_max":633,"o":"m 468 544 l 450 431 l 614 431 q 633 411 633 431 l 633 367 q 614 347 633 347 l 436 347 l 407 161 q 385 142 404 142 l 342 142 q 325 161 322 142 l 354 347 l 260 347 l 231 161 q 208 142 228 142 l 165 142 q 149 161 146 142 l 178 347 l 47 347 q 28 367 28 347 l 28 411 q 47 431 28 431 l 192 431 l 210 544 l 47 544 q 28 564 28 544 l 28 608 q 47 628 28 628 l 224 628 l 253 811 q 275 831 256 831 l 318 831 q 335 811 338 831 l 306 628 l 400 628 l 429 811 q 451 831 432 831 l 494 831 q 511 811 514 831 l 482 628 l 614 628 q 633 608 633 628 l 633 564 q 614 544 633 544 l 468 544 m 386 544 l 292 544 l 274 431 l 368 431 l 386 544 z "},"$":{"ha":458,"x_min":28,"x_max":431,"o":"m 286 646 q 268 660 268 640 l 268 750 q 258 774 268 764 q 235 783 249 783 l 224 783 q 200 774 210 783 q 190 750 190 764 l 190 674 q 196 647 192 658 q 211 625 200 636 l 393 489 q 422 449 415 469 q 431 404 428 429 l 431 217 q 390 103 431 151 q 286 44 349 56 l 286 -8 q 267 -28 286 -28 l 192 -28 q 172 -8 172 -28 l 172 44 q 69 103 110 56 q 28 217 28 151 l 28 296 q 46 321 28 315 l 172 354 q 190 340 190 360 l 190 224 q 200 200 190 210 q 224 190 210 190 l 235 190 q 258 200 249 190 q 268 224 268 210 l 268 356 q 263 388 267 374 q 246 413 258 401 l 67 550 q 37 589 46 569 q 28 640 28 608 l 28 757 q 69 870 28 822 q 172 929 110 918 l 172 981 q 192 1000 172 1000 l 267 1000 q 286 981 286 1000 l 286 929 q 390 870 349 918 q 431 757 431 822 l 431 704 q 413 679 431 685 l 286 646 l 286 646 z "},"%":{"ha":751,"x_min":49,"x_max":703,"o":"m 107 0 q 93 18 88 0 l 544 954 q 569 972 550 972 l 644 972 q 657 966 653 972 q 658 953 661 960 l 207 18 q 182 0 201 0 l 107 0 m 201 982 q 280 949 247 982 q 313 871 313 917 l 313 599 q 280 520 313 553 q 201 488 247 488 l 160 488 q 81 520 114 488 q 49 599 49 553 l 49 871 q 81 949 49 917 q 160 982 114 982 l 201 982 m 206 865 q 186 885 206 885 l 175 885 q 156 865 156 885 l 156 604 q 175 585 156 585 l 186 585 q 206 604 206 585 l 206 865 m 592 485 q 670 452 638 485 q 703 374 703 419 l 703 101 q 670 23 703 56 q 592 -10 638 -10 l 550 -10 q 472 23 504 -10 q 439 101 439 56 l 439 374 q 472 452 439 419 q 550 485 504 485 l 592 485 m 596 368 q 576 388 596 388 l 565 388 q 546 368 546 388 l 546 107 q 565 88 546 88 l 576 88 q 596 107 596 88 l 596 368 z "},"&":{"ha":572,"x_min":56,"x_max":517,"o":"m 506 335 q 517 321 517 332 l 517 275 q 506 267 517 264 l 458 276 l 458 165 q 444 97 458 129 q 407 42 431 65 q 351 4 383 18 q 283 -10 319 -10 l 231 -10 q 163 4 194 -10 q 107 42 131 18 q 69 97 83 65 q 56 165 56 129 l 56 411 q 63 471 56 440 q 72 491 67 482 q 85 507 76 500 q 125 531 103 522 q 85 558 101 540 q 58 614 65 581 q 56 631 57 622 q 56 650 56 640 l 56 807 q 69 875 56 843 q 107 931 83 907 q 163 968 131 954 q 231 982 194 982 l 283 982 q 351 968 319 982 q 407 931 383 954 q 444 875 431 907 q 458 807 458 843 l 458 664 q 440 650 458 644 l 314 683 q 296 708 296 689 l 296 800 q 286 824 296 814 q 263 833 276 833 l 251 833 q 228 824 238 833 q 218 800 218 814 l 218 639 q 225 610 218 617 q 234 602 228 607 q 250 597 240 597 l 315 597 q 327 592 322 597 q 332 581 332 588 l 332 478 q 327 466 332 471 q 315 461 322 461 l 250 461 q 233 457 238 461 q 225 450 228 453 q 219 433 221 444 q 218 411 218 422 l 218 172 q 228 149 218 158 q 251 139 238 139 l 263 139 q 286 149 276 139 q 296 172 296 158 l 296 374 q 307 382 296 385 l 506 335 l 506 335 z "},"'":{"ha":197,"x_min":28,"x_max":171,"o":"m 47 661 q 28 681 28 661 l 28 953 q 47 972 28 972 l 151 972 q 168 953 171 972 l 118 681 q 96 661 115 661 l 47 661 z "},"(":{"ha":326,"x_min":14,"x_max":319,"o":"m 203 146 q 247 27 221 79 q 308 -69 274 -25 q 307 -94 319 -82 l 272 -129 q 247 -129 260 -142 q 147 -15 190 -78 q 74 125 103 47 q 14 486 14 275 q 74 847 14 694 q 147 987 103 924 q 247 1101 190 1050 q 272 1101 260 1114 l 307 1067 q 308 1042 319 1054 q 247 945 274 997 q 203 826 221 893 q 173 676 183 760 q 163 486 163 593 q 173 296 163 379 q 203 146 183 213 z "},")":{"ha":326,"x_min":7,"x_max":313,"o":"m 124 146 q 153 296 142 213 q 164 486 164 379 q 153 676 164 593 q 124 826 142 760 q 78 945 104 893 q 18 1042 53 997 q 19 1067 7 1054 l 54 1101 q 79 1101 67 1114 q 253 847 193 999 q 297 681 282 769 q 313 486 313 592 q 297 291 313 381 q 253 125 282 201 q 179 -15 222 47 q 79 -129 136 -78 q 54 -129 67 -142 l 19 -94 q 18 -69 7 -82 q 78 27 53 -25 q 124 146 104 79 l 124 146 z "},"*":{"ha":364,"x_min":28,"x_max":336,"o":"m 322 757 q 336 738 336 749 q 333 728 336 732 l 314 693 q 306 686 311 689 q 282 689 296 681 q 214 736 253 703 q 221 690 218 713 q 224 653 224 668 q 213 632 224 638 q 201 629 207 629 l 163 629 q 151 632 157 629 q 143 639 147 635 q 140 653 139 643 q 143 690 140 668 q 150 736 146 713 q 82 689 110 703 q 58 686 67 682 q 50 693 53 689 l 31 728 q 28 738 28 732 q 31 747 28 742 q 42 757 33 753 q 74 774 54 764 q 117 793 93 785 q 74 812 93 801 q 42 829 54 822 q 28 847 28 836 q 31 858 28 853 l 50 893 q 58 899 53 896 q 82 897 68 904 q 114 877 97 889 q 150 850 131 865 q 143 896 146 874 q 140 933 140 918 q 143 947 139 943 q 151 954 147 951 q 163 957 157 957 l 201 957 q 213 954 207 957 q 224 933 224 949 q 221 896 224 918 q 214 850 218 874 q 250 877 233 865 q 282 897 267 889 q 306 899 294 904 q 314 893 311 896 l 333 858 q 336 847 336 853 q 322 829 336 838 q 290 812 310 822 q 247 793 271 801 q 290 774 271 785 q 322 757 310 764 z "},"+":{"ha":608,"x_min":42,"x_max":567,"o":"m 547 581 q 567 561 567 581 l 567 456 q 547 436 567 436 l 376 436 l 376 265 q 357 246 376 246 l 251 246 q 232 265 232 246 l 232 436 l 61 436 q 42 456 42 436 l 42 561 q 61 581 42 581 l 232 581 l 232 751 q 251 771 232 771 l 357 771 q 376 751 376 771 l 376 581 l 547 581 l 547 581 z "},",":{"ha":246,"x_min":28,"x_max":218,"o":"m 74 -114 l 74 -93 q 75 -89 74 -92 q 82 -85 79 -85 q 116 -73 94 -85 q 144 -22 138 -61 q 145 -9 146 -17 q 140 1 144 -1 q 130 2 138 4 q 118 0 122 0 q 80 6 94 0 q 53 24 65 13 q 28 88 28 46 q 50 142 28 118 q 113 168 75 168 q 181 140 154 168 q 214 72 208 113 q 217 44 217 58 q 215 17 218 31 q 192 -51 210 -21 q 143 -103 175 -82 q 126 -113 135 -108 q 107 -121 117 -118 q 99 -122 106 -121 q 85 -125 92 -124 q 79 -124 82 -125 q 74 -114 74 -121 z "},"-":{"ha":414,"x_min":42,"x_max":372,"o":"m 61 436 q 42 456 42 436 l 42 561 q 61 581 42 581 l 353 581 q 372 561 372 581 l 372 456 q 353 436 372 436 l 61 436 z "},".":{"ha":233,"x_min":28,"x_max":206,"o":"m 28 79 q 54 142 28 115 q 117 168 81 168 q 179 142 153 168 q 206 79 206 115 q 179 17 206 43 q 117 -10 153 -10 q 54 17 81 -10 q 28 79 28 43 z "},"/":{"ha":406,"x_min":-4,"x_max":407,"o":"m 15 0 q 1 18 -4 0 l 290 954 q 315 972 296 972 l 390 972 q 403 966 399 972 q 404 953 407 960 l 115 18 q 90 0 110 0 l 15 0 z "},":":{"ha":233,"x_min":28,"x_max":206,"o":"m 28 614 q 54 676 28 650 q 117 703 81 703 q 179 676 153 703 q 206 614 206 650 q 179 551 206 578 q 117 525 153 525 q 54 551 81 525 q 28 614 28 578 m 28 301 q 54 364 28 338 q 117 390 81 390 q 179 364 153 390 q 206 301 206 338 q 179 239 206 265 q 117 213 153 213 q 54 239 81 213 q 28 301 28 265 z "},";":{"ha":246,"x_min":28,"x_max":218,"o":"m 74 111 l 74 132 q 75 136 74 133 q 82 140 79 140 q 116 152 94 140 q 144 203 138 164 q 145 216 146 208 q 140 226 144 224 q 130 227 138 229 q 118 225 122 225 q 80 231 94 225 q 53 249 65 238 q 28 313 28 271 q 50 367 28 343 q 113 393 75 393 q 181 365 154 393 q 214 297 208 338 q 217 269 217 283 q 215 242 218 256 q 192 174 210 204 q 143 122 175 143 q 126 112 135 117 q 107 104 117 107 q 99 103 106 104 q 85 100 92 101 q 79 101 82 100 q 74 111 74 104 m 28 614 q 54 676 28 650 q 117 703 81 703 q 179 676 153 703 q 206 614 206 650 q 179 551 206 578 q 117 525 153 525 q 54 551 81 525 q 28 614 28 578 z "},"<":{"ha":444,"x_min":28,"x_max":403,"o":"m 213 490 q 211 486 211 489 q 213 482 211 483 l 325 389 l 388 336 q 403 304 403 324 l 403 168 q 399 157 403 160 q 388 160 394 154 l 32 458 q 28 463 29 460 q 28 468 28 465 l 28 504 q 32 514 28 511 l 388 813 q 399 815 394 818 q 403 804 403 813 l 403 668 q 388 636 403 649 l 325 583 l 213 490 z "},"=":{"ha":489,"x_min":42,"x_max":447,"o":"m 61 536 q 42 556 42 536 l 42 661 q 61 681 42 681 l 428 681 q 447 661 447 681 l 447 556 q 428 536 447 536 l 61 536 m 61 328 q 42 347 42 328 l 42 453 q 61 472 42 472 l 428 472 q 447 453 447 472 l 447 347 q 428 328 447 328 l 61 328 z "},">":{"ha":444,"x_min":42,"x_max":417,"o":"m 57 636 q 42 668 42 649 l 42 804 q 46 815 42 813 q 57 813 50 818 l 413 514 q 417 504 417 511 l 417 468 q 416 463 417 465 q 413 458 415 460 l 57 160 q 46 157 50 154 q 42 168 42 160 l 42 304 q 57 336 42 324 l 232 482 q 233 486 233 483 q 232 490 233 489 l 57 636 z "},"?":{"ha":531,"x_min":49,"x_max":482,"o":"m 136 79 q 163 142 136 115 q 225 168 189 168 q 288 142 261 168 q 314 79 314 115 q 288 17 314 43 q 225 -10 261 -10 q 163 17 189 -10 q 136 79 136 43 m 261 982 q 375 958 332 982 q 442 895 418 933 q 474 810 467 857 q 481 721 482 764 q 476 657 479 681 q 464 613 474 633 q 433 566 454 592 q 375 497 413 540 q 325 442 350 468 q 288 385 300 415 q 275 333 279 365 q 268 274 271 300 l 267 253 q 262 242 267 246 q 250 238 257 238 l 192 238 q 174 253 176 238 q 168 314 171 286 q 164 358 165 338 q 163 385 163 379 q 172 444 161 417 q 201 499 183 472 q 241 554 218 526 q 285 614 264 582 q 303 647 297 633 q 313 672 310 660 q 317 695 317 683 q 317 724 317 707 q 307 798 317 771 q 261 825 297 825 q 223 806 235 825 q 211 754 211 786 l 211 681 q 207 668 211 674 q 196 661 203 663 l 64 629 q 53 631 57 626 q 49 642 49 635 l 49 747 q 104 922 49 861 q 261 982 160 982 z "},"@":{"ha":744,"x_min":28,"x_max":717,"o":"m 301 281 q 236 303 258 281 q 203 353 214 325 q 189 425 190 385 q 195 493 189 458 q 217 560 201 528 q 301 664 247 626 q 382 690 339 690 q 443 669 418 690 l 450 663 l 453 669 q 469 683 458 683 l 556 683 q 569 676 563 683 q 572 660 575 669 l 506 429 q 501 413 504 424 q 497 389 497 401 q 498 367 496 376 q 511 356 500 357 q 529 356 518 354 q 560 374 540 358 q 590 408 576 383 q 613 468 604 432 q 621 549 621 504 q 603 659 621 611 q 553 742 585 707 q 478 793 521 776 q 383 813 436 810 q 289 793 342 814 q 199 719 236 772 q 146 614 167 674 q 125 483 125 554 q 142 351 125 410 q 193 250 158 292 q 277 185 228 208 q 383 163 326 163 q 483 181 439 163 q 557 231 526 200 q 571 236 563 236 q 583 231 579 236 l 617 190 q 619 176 621 185 q 613 161 618 167 q 514 97 569 118 q 388 74 458 76 q 276 88 325 71 q 193 129 228 106 q 122 190 153 156 q 28 486 28 297 q 55 651 28 576 q 131 783 82 726 q 244 872 179 840 q 383 904 308 904 q 464 895 426 904 q 533 871 501 886 q 590 833 565 856 q 635 785 614 811 q 696 669 675 732 q 717 547 717 607 q 686 399 717 468 q 649 340 671 367 q 597 294 626 313 q 507 271 557 271 q 443 286 468 271 q 403 333 415 303 q 390 319 396 326 q 376 307 383 313 q 301 281 342 281 m 313 397 q 319 385 314 389 q 349 386 329 375 q 364 400 356 389 q 390 457 381 421 l 418 561 q 415 585 418 574 q 407 594 411 592 q 397 596 406 596 q 367 582 382 596 q 336 540 350 567 q 315 484 322 514 q 307 431 307 454 q 313 397 307 411 z "},"[":{"ha":319,"x_min":14,"x_max":306,"o":"m 153 1000 l 153 -28 l 286 -28 q 306 -47 306 -28 l 306 -142 q 286 -161 306 -161 l 33 -161 q 14 -142 14 -161 l 14 1114 q 33 1133 14 1133 l 286 1133 q 306 1114 306 1133 l 306 1019 q 286 1000 306 1000 l 153 1000 z "},"\\":{"ha":406,"x_min":-1,"x_max":410,"o":"m 315 0 q 290 18 296 0 l 1 953 q 3 966 -1 960 q 15 972 7 972 l 90 972 q 115 954 110 972 l 404 18 q 390 0 410 0 l 315 0 z "},"]":{"ha":319,"x_min":14,"x_max":306,"o":"m 33 1000 q 14 1019 14 1000 l 14 1114 q 33 1133 14 1133 l 286 1133 q 306 1114 306 1133 l 306 -142 q 286 -161 306 -161 l 33 -161 q 14 -142 14 -161 l 14 -47 q 33 -28 14 -28 l 167 -28 l 167 1000 l 33 1000 z "},"^":{"ha":386,"x_min":-1,"x_max":388,"o":"m 381 771 q 383 749 388 761 q 367 740 381 740 l 279 740 q 264 747 268 740 l 193 844 l 122 747 q 107 740 115 740 l 19 740 q 3 749 6 740 q 6 771 -1 761 l 178 965 q 192 972 182 972 l 194 972 q 208 965 201 972 l 381 771 l 381 771 z "},"_":{"ha":581,"x_min":28,"x_max":553,"o":"m 47 -125 q 28 -106 28 -125 l 28 -19 q 47 0 28 0 l 533 0 q 553 -19 553 0 l 553 -106 q 533 -125 553 -125 l 47 -125 z "},"{":{"ha":411,"x_min":56,"x_max":356,"o":"m 289 960 q 253 953 268 960 q 228 932 239 946 q 221 890 218 918 q 231 840 222 867 q 250 786 239 814 q 274 732 261 758 q 296 681 286 706 q 315 596 314 635 q 301 531 317 563 q 238 486 286 499 q 301 441 286 472 q 315 376 317 410 q 296 292 314 338 q 274 240 286 265 q 250 186 261 214 q 231 132 239 158 q 221 82 222 106 q 228 40 218 54 q 253 19 239 26 q 289 13 268 13 l 335 13 q 350 7 344 13 q 356 -7 356 1 l 356 -86 q 352 -101 356 -96 q 344 -108 349 -106 q 335 -114 339 -112 q 280 -119 306 -121 q 235 -112 254 -118 q 193 -97 211 -107 q 135 -54 160 -81 q 95 3 113 -32 q 81 88 78 39 q 99 186 83 140 q 133 269 114 232 q 147 294 138 279 q 164 325 156 308 q 178 358 172 342 q 182 386 183 375 q 169 415 179 406 q 147 428 158 425 q 117 431 133 432 l 76 431 q 61 436 67 431 q 56 451 56 442 l 56 521 q 61 536 56 531 q 76 542 67 542 l 117 542 q 147 544 133 540 q 169 557 158 547 q 182 586 179 567 q 178 613 183 597 q 164 646 172 629 q 147 678 156 663 q 133 703 138 693 q 99 786 114 740 q 81 885 83 832 q 95 968 78 933 q 135 1026 113 1003 q 193 1069 160 1051 q 235 1083 211 1078 q 280 1090 254 1088 q 335 1086 306 1093 q 344 1081 339 1085 q 356 1058 356 1072 l 356 979 q 350 965 356 971 q 335 960 344 960 l 289 960 l 289 960 z "},"|":{"ha":222,"x_min":56,"x_max":167,"o":"m 75 -132 q 56 -112 56 -132 l 56 1085 q 75 1104 56 1104 l 147 1104 q 167 1085 167 1104 l 167 -112 q 147 -132 167 -132 l 75 -132 z "},"}":{"ha":411,"x_min":56,"x_max":356,"o":"m 122 960 l 76 960 q 61 965 67 960 q 56 979 56 971 l 56 1058 q 65 1081 56 1074 q 76 1086 71 1085 q 131 1090 104 1093 q 176 1083 157 1088 q 218 1069 200 1078 q 276 1026 251 1051 q 316 968 299 1003 q 331 885 333 933 q 313 786 328 832 q 278 703 297 740 q 265 678 274 693 q 247 646 256 663 q 233 613 239 629 q 229 586 228 597 q 242 557 232 567 q 264 544 253 547 q 294 542 278 540 l 335 542 q 350 536 344 542 q 356 521 356 531 l 356 451 q 350 436 356 442 q 335 431 344 431 l 294 431 q 264 428 278 432 q 242 415 253 425 q 229 386 232 406 q 233 358 228 375 q 247 325 239 342 q 265 294 256 308 q 278 269 274 279 q 313 186 297 232 q 331 88 328 140 q 316 3 333 39 q 276 -54 299 -32 q 218 -97 251 -81 q 176 -112 200 -107 q 131 -119 157 -118 q 76 -114 104 -121 q 65 -108 71 -112 q 56 -86 56 -101 l 56 -7 q 61 7 56 1 q 76 13 67 13 l 122 13 q 158 19 143 13 q 182 40 172 26 q 190 82 192 54 q 181 132 189 106 q 161 186 172 158 q 138 240 150 214 q 115 292 125 265 q 96 376 97 338 q 110 441 94 410 q 174 486 125 472 q 110 531 125 499 q 96 596 94 563 q 115 681 97 635 q 138 732 125 706 q 161 786 150 758 q 181 840 172 814 q 190 890 189 867 q 182 932 192 918 q 158 953 172 946 q 122 960 143 960 z "},"¢":{"ha":500,"x_min":49,"x_max":451,"o":"m 307 583 q 289 597 289 578 l 289 661 q 279 685 289 675 q 256 694 269 694 l 244 694 q 221 685 231 694 q 211 661 211 675 l 211 317 q 221 293 211 303 q 244 283 231 283 l 256 283 q 279 293 269 283 q 289 317 289 303 l 289 443 q 307 457 289 463 l 433 440 q 451 415 451 435 l 451 310 q 410 197 451 244 q 307 138 369 149 l 307 19 q 288 0 307 0 l 213 0 q 193 19 193 0 l 193 138 q 90 197 131 149 q 49 310 49 244 l 49 668 q 90 781 49 733 q 193 840 131 829 l 193 953 q 213 972 193 972 l 288 972 q 307 953 307 972 l 307 840 q 410 781 369 829 q 451 668 451 733 l 451 628 q 433 603 451 608 l 307 583 l 307 583 z "},"“":{"ha":424,"x_min":0,"x_max":424,"o":"m 378 971 l 378 950 q 376 946 378 947 q 369 942 374 942 q 353 939 363 942 q 335 929 344 936 q 317 910 325 922 q 307 879 310 899 q 306 866 306 874 q 311 856 307 858 q 322 855 314 853 q 333 857 329 857 q 371 851 356 857 q 399 833 386 844 q 424 769 424 810 q 401 715 424 739 q 338 689 376 689 q 269 717 294 689 q 238 785 243 744 q 234 813 235 799 q 236 840 233 826 q 259 908 242 878 q 308 960 276 939 q 326 970 317 965 q 344 978 335 975 q 353 979 346 978 q 367 982 360 981 q 372 981 369 982 q 378 971 378 978 m 144 971 l 144 950 q 143 946 144 947 q 136 942 140 942 q 120 939 129 942 q 101 929 111 936 q 84 910 92 922 q 74 879 76 899 q 73 866 72 874 q 78 856 74 858 q 88 855 81 853 q 100 857 96 857 q 138 851 122 857 q 165 833 153 844 q 190 769 190 810 q 168 715 190 739 q 104 689 143 689 q 35 717 61 689 q 4 785 10 744 q 1 813 1 799 q 3 840 0 826 q 26 908 8 878 q 75 960 43 939 q 92 970 83 965 q 111 978 101 975 q 119 979 113 978 q 133 982 126 981 q 139 981 136 982 q 144 971 144 978 z "},"”":{"ha":424,"x_min":0,"x_max":424,"o":"m 46 700 l 46 721 q 47 725 46 722 q 54 729 51 729 q 88 741 67 729 q 117 792 110 753 q 117 805 118 797 q 113 815 117 813 q 102 816 110 818 q 90 814 94 814 q 52 820 67 814 q 25 838 38 826 q 0 901 0 860 q 22 956 0 932 q 86 982 47 982 q 154 954 128 982 q 186 886 181 926 q 190 858 189 872 q 188 831 190 844 q 165 763 182 793 q 115 711 147 732 q 98 701 107 706 q 79 693 89 696 q 71 692 78 693 q 57 689 64 690 q 51 690 54 689 q 46 700 46 693 m 279 700 l 279 721 q 281 725 279 722 q 288 729 285 729 q 322 741 300 729 q 350 792 343 753 q 351 805 351 797 q 346 815 350 813 q 335 816 343 818 q 324 814 328 814 q 285 820 300 814 q 258 838 271 826 q 233 901 233 860 q 256 956 233 932 q 319 982 281 982 q 388 954 361 982 q 419 886 414 926 q 423 858 422 872 q 421 831 424 844 q 398 763 415 793 q 349 711 381 732 q 331 701 340 706 q 313 693 322 696 q 304 692 311 693 q 290 689 297 690 q 285 690 288 689 q 279 700 279 693 z "},"‘":{"ha":190,"x_min":0,"x_max":190,"o":"m 144 971 l 144 950 q 143 946 144 947 q 136 942 140 942 q 120 939 129 942 q 101 929 111 936 q 84 910 92 922 q 74 879 76 899 q 73 866 72 874 q 78 856 74 858 q 88 855 81 853 q 100 857 96 857 q 138 851 122 857 q 165 833 153 844 q 190 769 190 810 q 168 715 190 739 q 104 689 143 689 q 35 717 61 689 q 4 785 10 744 q 1 813 1 799 q 3 840 0 826 q 26 908 8 878 q 75 960 43 939 q 92 970 83 965 q 111 978 101 975 q 119 979 113 978 q 133 982 126 981 q 139 981 136 982 q 144 971 144 978 z "},"’":{"ha":190,"x_min":0,"x_max":190,"o":"m 46 700 l 46 721 q 47 725 46 722 q 54 729 51 729 q 88 741 67 729 q 117 792 110 753 q 117 805 118 797 q 113 815 117 813 q 102 816 110 818 q 90 814 94 814 q 52 820 67 814 q 25 838 38 826 q 0 901 0 860 q 22 956 0 932 q 86 982 47 982 q 154 954 128 982 q 186 886 181 926 q 190 858 189 872 q 188 831 190 844 q 165 763 182 793 q 115 711 147 732 q 98 701 107 706 q 79 693 89 696 q 71 692 78 693 q 57 689 64 690 q 51 690 54 689 q 46 700 46 693 z "},"–":{"ha":489,"x_min":42,"x_max":447,"o":"m 61 436 q 42 456 42 436 l 42 561 q 61 581 42 581 l 428 581 q 447 561 447 581 l 447 456 q 428 436 447 436 l 61 436 z "},"—":{"ha":608,"x_min":42,"x_max":567,"o":"m 61 436 q 42 456 42 436 l 42 561 q 61 581 42 581 l 547 581 q 567 561 567 581 l 567 456 q 547 436 567 436 l 61 436 z "},"×":{"ha":493,"x_min":28,"x_max":486,"o":"m 481 388 q 486 374 486 382 q 481 360 486 365 l 406 285 q 392 279 400 279 q 378 285 383 279 l 257 406 l 136 285 q 122 279 131 279 q 108 285 114 279 l 33 360 q 28 374 28 365 q 33 388 28 382 l 154 508 l 33 629 q 28 643 28 635 q 33 657 28 651 l 108 732 q 122 738 114 738 q 136 732 131 738 l 257 611 l 378 732 q 392 738 383 738 q 406 732 400 738 l 481 657 q 486 643 486 651 q 481 629 486 635 l 360 508 l 481 388 z "},"A":{"ha":494,"x_min":26,"x_max":468,"o":"m 465 19 q 449 0 468 0 l 322 0 q 301 19 304 0 l 290 169 l 204 169 l 193 19 q 172 0 190 0 l 46 0 q 29 19 26 0 l 133 953 q 156 972 136 972 l 339 972 q 361 953 358 972 l 465 19 m 279 325 l 253 701 l 242 701 l 215 325 l 279 325 z "},"°":{"ha":233,"x_min":28,"x_max":206,"o":"m 117 992 q 179 965 153 992 q 206 903 206 939 q 179 840 206 867 q 117 814 153 814 q 54 840 81 814 q 28 903 28 867 q 54 965 28 939 q 117 992 81 992 m 117 850 q 154 865 139 850 q 169 903 169 881 q 154 940 169 925 q 117 956 139 956 q 79 940 94 956 q 64 903 64 925 q 79 865 64 881 q 117 850 94 850 z "},"¶":{"ha":668,"x_min":56,"x_max":613,"o":"m 593 972 q 613 953 613 972 l 613 19 q 593 0 613 0 l 531 0 q 511 19 511 0 l 511 824 l 458 824 l 458 19 q 439 0 458 0 l 315 0 q 296 19 296 0 l 296 396 l 231 396 q 163 410 194 396 q 107 447 131 424 q 69 503 83 471 q 56 571 56 535 l 56 797 q 69 865 56 833 q 107 921 83 897 q 163 958 131 944 q 231 972 194 972 l 593 972 m 296 824 l 251 824 q 228 814 238 824 q 218 790 218 804 l 218 578 q 228 554 218 564 q 251 544 238 544 l 296 544 l 296 824 z "},"®":{"ha":361,"x_min":28,"x_max":333,"o":"m 235 738 q 232 733 236 733 l 200 733 q 194 738 196 733 l 172 808 l 172 736 q 168 733 172 733 l 142 733 q 138 738 138 733 l 138 924 q 142 929 138 929 l 188 929 q 217 916 206 929 q 228 885 228 903 l 228 860 q 222 837 228 847 q 203 822 217 826 l 235 738 m 192 883 q 183 892 192 892 l 172 892 l 172 850 l 183 850 q 192 858 192 850 l 192 883 m 181 982 q 240 970 213 982 q 289 938 268 958 q 322 889 310 917 q 333 829 333 861 q 322 769 333 797 q 289 721 310 742 q 240 688 268 700 q 181 676 213 676 q 121 688 149 676 q 72 721 93 700 q 40 769 51 742 q 28 829 28 797 q 40 889 28 861 q 72 938 51 917 q 121 970 93 958 q 181 982 149 982 m 181 704 q 269 740 233 704 q 306 829 306 776 q 269 918 306 882 q 181 954 233 954 q 92 918 128 954 q 56 829 56 882 q 92 740 56 776 q 181 704 128 704 z "},"©":{"ha":361,"x_min":28,"x_max":333,"o":"m 181 982 q 240 970 213 982 q 289 938 268 958 q 322 889 310 917 q 333 829 333 861 q 322 769 333 797 q 289 721 310 742 q 240 688 268 700 q 181 676 213 676 q 121 688 149 676 q 72 721 93 700 q 40 769 51 742 q 28 829 28 797 q 40 889 28 861 q 72 938 51 917 q 121 970 93 958 q 181 982 149 982 m 181 704 q 269 740 233 704 q 306 829 306 776 q 269 918 306 882 q 181 954 233 954 q 92 918 128 954 q 56 829 56 882 q 92 740 56 776 q 181 704 128 704 m 188 935 q 219 922 207 935 q 232 890 232 910 l 232 861 q 228 856 232 856 l 194 850 q 190 854 190 847 l 190 889 q 182 897 190 897 l 179 897 q 171 889 171 897 l 171 771 q 179 763 171 763 l 182 763 q 190 771 190 763 l 190 810 q 194 814 190 814 l 228 808 q 232 803 232 806 l 232 769 q 219 738 232 750 q 188 725 207 725 l 174 725 q 142 738 154 725 q 129 769 129 750 l 129 890 q 142 922 129 910 q 174 935 154 935 l 188 935 z "},"÷":{"ha":608,"x_min":42,"x_max":567,"o":"m 547 581 q 567 561 567 581 l 567 456 q 547 436 567 436 l 61 436 q 42 456 42 436 l 42 561 q 61 581 42 581 l 547 581 m 304 390 q 367 364 340 390 q 393 301 393 338 q 367 239 393 265 q 304 213 340 213 q 242 239 268 213 q 215 301 215 265 q 242 364 215 338 q 304 390 268 390 m 304 626 q 242 653 268 626 q 215 715 215 679 q 242 778 215 751 q 304 804 268 804 q 367 778 340 804 q 393 715 393 751 q 367 653 393 679 q 304 626 340 626 z "},"™":{"ha":374,"x_min":28,"x_max":346,"o":"m 340 972 q 346 967 346 972 l 346 708 q 339 703 346 703 l 297 703 q 290 708 290 703 l 290 828 l 261 714 q 257 714 258 710 l 228 828 l 228 708 q 222 703 228 703 l 179 703 q 174 708 174 703 l 174 967 q 179 972 174 972 l 218 972 q 225 967 222 972 l 260 828 l 294 967 q 301 972 294 972 l 340 972 m 149 972 q 154 967 154 972 l 154 926 q 149 921 154 921 l 117 921 l 117 708 q 111 703 117 703 l 71 703 q 65 708 65 703 l 65 921 l 33 921 q 28 926 28 921 l 28 967 q 33 972 28 972 l 149 972 z "},"…":{"ha":694,"x_min":28,"x_max":667,"o":"m 28 79 q 54 142 28 115 q 117 168 81 168 q 179 142 153 168 q 206 79 206 115 q 179 17 206 43 q 117 -10 153 -10 q 54 17 81 -10 q 28 79 28 43 m 258 79 q 285 142 258 115 q 347 168 311 168 q 410 142 383 168 q 436 79 436 115 q 410 17 436 43 q 347 -10 383 -10 q 285 17 311 -10 q 258 79 258 43 m 489 79 q 515 142 489 115 q 578 168 542 168 q 640 142 614 168 q 667 79 667 115 q 640 17 667 43 q 578 -10 614 -10 q 515 17 542 -10 q 489 79 489 43 z "},"¿":{"ha":531,"x_min":49,"x_max":482,"o":"m 394 893 q 368 831 394 857 q 306 804 342 804 q 243 831 269 804 q 217 893 217 857 q 243 956 217 929 q 306 982 269 982 q 368 956 342 982 q 394 893 394 929 m 269 -10 q 426 51 371 -10 q 482 225 482 111 l 482 331 q 467 343 482 346 l 335 311 q 319 292 319 306 l 319 218 q 308 167 319 186 q 269 147 296 147 q 224 174 233 147 q 214 249 214 201 q 214 277 214 265 q 217 301 214 289 q 227 326 221 313 q 246 358 233 339 q 290 418 267 390 q 330 473 313 446 q 358 528 347 500 q 368 588 369 556 q 366 614 367 593 q 363 658 365 635 l 357 719 q 339 735 354 735 l 281 735 q 269 731 274 735 q 264 719 264 726 l 263 699 q 256 640 260 672 q 243 588 251 607 q 205 531 229 557 q 156 475 181 504 q 97 406 118 431 q 66 360 76 381 q 53 315 56 339 q 50 251 51 292 q 56 162 49 208 q 88 77 64 115 q 155 15 111 39 q 269 -10 199 -10 z "},"−":{"ha":608,"x_min":42,"x_max":567,"o":"m 61 436 q 42 456 42 436 l 42 561 q 61 581 42 581 l 547 581 q 567 561 567 581 l 567 456 q 547 436 567 436 l 61 436 z "},"a":{"ha":494,"x_min":26,"x_max":468,"o":"m 465 19 q 449 0 468 0 l 322 0 q 301 19 304 0 l 290 156 l 204 156 l 193 19 q 172 0 190 0 l 46 0 q 29 19 26 0 l 133 814 q 156 833 136 833 l 339 833 q 361 814 358 833 l 465 19 m 279 311 l 253 618 l 242 618 l 215 311 l 279 311 z "},"b":{"ha":507,"x_min":63,"x_max":465,"o":"m 426 393 q 456 347 446 374 q 465 289 465 321 l 465 175 q 451 107 465 139 q 414 51 438 75 q 358 14 390 28 q 290 0 326 0 l 86 0 q 70 2 78 0 q 63 19 63 4 l 63 814 q 82 833 63 833 l 290 833 q 358 819 326 833 q 414 782 390 806 q 451 726 438 758 q 465 658 465 694 l 465 567 q 426 460 465 503 q 376 424 406 438 q 426 393 407 413 m 303 311 q 293 335 303 325 q 269 344 283 344 l 225 344 l 225 149 l 269 149 q 293 158 283 149 q 303 182 303 168 l 303 311 m 303 651 q 293 675 303 665 q 269 685 283 685 l 225 685 l 225 496 l 269 496 q 293 506 283 496 q 303 529 303 515 l 303 651 z "},"c":{"ha":493,"x_min":49,"x_max":451,"o":"m 276 843 q 344 829 313 843 q 400 792 376 815 q 438 736 424 768 q 451 668 451 704 l 451 585 q 433 560 451 565 l 307 540 q 289 554 289 535 l 289 661 q 279 685 289 675 q 256 694 269 694 l 244 694 q 221 685 231 694 q 211 661 211 675 l 211 172 q 221 149 211 158 q 244 139 231 139 l 256 139 q 279 149 269 139 q 289 172 289 158 l 289 339 q 307 353 289 358 l 433 336 q 451 311 451 331 l 451 165 q 438 97 451 129 q 400 42 424 65 q 344 4 376 18 q 276 -10 313 -10 l 224 -10 q 156 4 188 -10 q 100 42 124 18 q 63 97 76 65 q 49 165 49 129 l 49 668 q 63 736 49 704 q 100 792 76 768 q 156 829 124 815 q 224 843 188 843 l 276 843 l 276 843 z "},"d":{"ha":514,"x_min":63,"x_max":465,"o":"m 290 833 q 358 819 326 833 q 414 782 390 806 q 451 726 438 758 q 465 658 465 694 l 465 175 q 451 107 465 139 q 414 51 438 75 q 358 14 390 28 q 290 0 326 0 l 82 0 q 63 19 63 0 l 63 814 q 82 833 63 833 l 290 833 m 303 651 q 293 675 303 665 q 269 685 283 685 l 225 685 l 225 149 l 269 149 q 293 158 283 149 q 303 182 303 168 l 303 651 z "},"e":{"ha":458,"x_min":63,"x_max":403,"o":"m 383 163 q 403 143 403 163 l 403 19 q 383 0 403 0 l 82 0 q 63 19 63 0 l 63 814 q 82 833 63 833 l 383 833 q 403 814 403 833 l 403 690 q 383 671 403 671 l 225 671 l 225 513 l 363 513 q 382 493 382 513 l 382 369 q 363 350 382 350 l 225 350 l 225 163 l 383 163 l 383 163 z "},"f":{"ha":444,"x_min":63,"x_max":403,"o":"m 383 833 q 403 814 403 833 l 403 690 q 383 671 403 671 l 225 671 l 225 513 l 363 513 q 382 493 382 513 l 382 369 q 363 350 382 350 l 225 350 l 225 19 q 206 0 225 0 l 82 0 q 63 19 63 0 l 63 814 q 82 833 63 833 l 383 833 l 383 833 z "},"g":{"ha":500,"x_min":49,"x_max":451,"o":"m 276 843 q 344 829 313 843 q 400 792 376 815 q 438 736 424 768 q 451 668 451 704 l 451 638 q 433 613 451 618 l 307 567 q 289 581 289 561 l 289 661 q 279 685 289 675 q 256 694 269 694 l 244 694 q 221 685 231 694 q 211 661 211 675 l 211 172 q 221 149 211 158 q 244 139 231 139 l 256 139 q 279 149 269 139 q 289 172 289 158 l 289 322 l 250 322 l 250 481 l 432 481 q 451 461 451 481 l 451 165 q 438 97 451 129 q 400 42 424 65 q 344 4 376 18 q 276 -10 313 -10 l 224 -10 q 156 4 188 -10 q 100 42 124 18 q 63 97 76 65 q 49 165 49 129 l 49 668 q 63 736 49 704 q 100 792 76 768 q 156 829 124 815 q 224 843 188 843 l 276 843 l 276 843 z "},"h":{"ha":542,"x_min":63,"x_max":479,"o":"m 460 833 q 479 814 479 833 l 479 19 q 460 0 479 0 l 336 0 q 317 19 317 0 l 317 333 l 225 333 l 225 19 q 206 0 225 0 l 82 0 q 63 19 63 0 l 63 814 q 82 833 63 833 l 206 833 q 225 814 225 833 l 225 496 l 317 496 l 317 814 q 336 833 317 833 l 460 833 l 460 833 z "},"i":{"ha":288,"x_min":63,"x_max":225,"o":"m 225 19 q 206 0 225 0 l 82 0 q 63 19 63 0 l 63 814 q 82 833 63 833 l 206 833 q 225 814 225 833 l 225 19 z "},"j":{"ha":493,"x_min":35,"x_max":438,"o":"m 418 833 q 438 814 438 833 l 438 165 q 424 97 438 129 q 386 42 410 65 q 331 4 363 18 q 263 -10 299 -10 l 210 -10 q 142 4 174 -10 q 86 42 110 18 q 49 97 63 65 q 35 165 35 129 l 35 314 q 53 339 35 333 l 179 372 q 197 358 197 378 l 197 172 q 207 149 197 158 q 231 139 217 139 l 242 139 q 265 149 256 139 q 275 172 275 158 l 275 814 q 294 833 275 833 l 418 833 z "},"k":{"ha":560,"x_min":63,"x_max":532,"o":"m 518 833 q 529 827 526 833 q 529 814 532 821 l 340 460 l 526 19 q 525 6 529 13 q 513 0 521 0 l 375 0 q 360 5 367 0 q 350 17 353 10 l 249 247 l 225 203 l 225 19 q 206 0 225 0 l 82 0 q 63 19 63 0 l 63 814 q 82 833 63 833 l 206 833 q 225 814 225 833 l 225 571 l 353 817 q 379 833 360 833 l 518 833 l 518 833 z "},"l":{"ha":458,"x_min":69,"x_max":424,"o":"m 404 163 q 424 143 424 163 l 424 19 q 404 0 424 0 l 217 0 l 214 0 l 213 0 l 89 0 q 69 19 69 0 l 69 814 q 89 833 69 833 l 213 833 q 232 814 232 833 l 232 163 l 404 163 l 404 163 z "},"m":{"ha":667,"x_min":63,"x_max":604,"o":"m 585 833 q 604 814 604 833 l 604 19 q 585 0 604 0 l 451 0 q 432 19 432 0 l 432 389 l 340 58 q 333 51 338 51 q 326 58 329 51 l 235 389 l 235 19 q 215 0 235 0 l 82 0 q 63 19 63 0 l 63 814 q 82 833 63 833 l 200 833 q 215 827 208 833 q 224 814 221 821 l 333 386 l 443 814 q 452 827 446 821 q 467 833 458 833 l 585 833 l 585 833 z "},"n":{"ha":569,"x_min":63,"x_max":507,"o":"m 488 833 q 507 814 507 833 l 507 19 q 488 0 507 0 l 399 0 q 383 6 390 0 q 372 18 375 11 l 225 381 l 225 19 q 206 0 225 0 l 82 0 q 63 19 63 0 l 63 814 q 82 833 63 833 l 174 833 q 190 828 182 833 q 200 815 197 822 l 344 411 l 344 814 q 364 833 344 833 l 488 833 l 488 833 z "},"o":{"ha":500,"x_min":49,"x_max":451,"o":"m 451 165 q 438 97 451 129 q 400 42 424 65 q 344 4 376 18 q 276 -10 313 -10 l 224 -10 q 156 4 188 -10 q 100 42 124 18 q 63 97 76 65 q 49 165 49 129 l 49 668 q 63 736 49 704 q 100 792 76 768 q 156 829 124 815 q 224 843 188 843 l 276 843 q 344 829 313 843 q 400 792 376 815 q 438 736 424 768 q 451 668 451 704 l 451 165 m 289 661 q 279 685 289 675 q 256 694 269 694 l 244 694 q 221 685 231 694 q 211 661 211 675 l 211 172 q 221 149 211 158 q 244 139 231 139 l 256 139 q 279 149 269 139 q 289 172 289 158 l 289 661 z "},"p":{"ha":493,"x_min":63,"x_max":465,"o":"m 290 833 q 358 819 326 833 q 414 782 390 806 q 451 726 438 758 q 465 658 465 694 l 465 474 q 451 406 465 438 q 414 350 438 374 q 358 313 390 326 q 290 299 326 299 l 225 299 l 225 19 q 206 0 225 0 l 82 0 q 63 19 63 0 l 63 814 q 82 833 63 833 l 290 833 m 303 651 q 293 675 303 665 q 269 685 283 685 l 225 685 l 225 447 l 269 447 q 293 457 283 447 q 303 481 303 467 l 303 651 z "},"q":{"ha":506,"x_min":49,"x_max":457,"o":"m 453 -56 q 455 -70 457 -62 q 446 -81 453 -78 l 350 -124 q 319 -115 331 -132 l 249 -10 l 224 -10 q 156 4 188 -10 q 100 42 124 18 q 63 97 76 65 q 49 165 49 129 l 49 668 q 63 736 49 704 q 100 792 76 768 q 156 829 124 815 q 224 843 188 843 l 276 843 q 344 829 313 843 q 400 792 376 815 q 438 736 424 768 q 451 668 451 704 l 451 165 q 436 92 451 126 q 393 35 421 58 l 453 -56 m 211 172 q 221 149 211 158 q 244 139 231 139 l 256 139 q 279 149 269 139 q 289 172 289 158 l 289 661 q 279 685 289 675 q 256 694 269 694 l 244 694 q 221 685 231 694 q 211 661 211 675 l 211 172 z "},"r":{"ha":522,"x_min":63,"x_max":497,"o":"m 225 19 q 204 0 225 0 l 81 0 q 63 19 63 0 l 63 814 q 82 833 63 833 l 290 833 q 358 819 326 833 q 414 782 390 806 q 451 726 438 758 q 465 658 465 694 l 465 488 q 435 395 465 436 q 361 332 404 354 l 493 19 q 479 0 497 0 l 353 0 q 337 6 344 0 q 326 19 329 11 l 225 276 l 225 19 m 225 461 l 269 461 q 293 471 283 461 q 303 494 303 481 l 303 651 q 293 675 303 665 q 269 685 283 685 l 225 685 l 225 461 z "},"s":{"ha":486,"x_min":42,"x_max":444,"o":"m 269 843 q 338 829 306 843 q 393 792 369 815 q 431 736 417 768 q 444 668 444 704 l 444 615 q 426 590 444 596 l 300 557 q 282 571 282 551 l 282 661 q 272 685 282 675 q 249 694 263 694 l 238 694 q 214 685 224 694 q 204 661 204 675 l 204 576 q 210 550 206 561 q 225 528 214 539 l 407 392 q 435 352 429 372 q 444 307 442 332 l 444 165 q 431 97 444 129 q 393 42 417 65 q 338 4 369 18 q 269 -10 306 -10 l 217 -10 q 149 4 181 -10 q 93 42 117 18 q 56 97 69 65 q 42 165 42 129 l 42 243 q 60 268 42 263 l 186 301 q 204 288 204 307 l 204 172 q 214 149 204 158 q 238 139 224 139 l 249 139 q 272 149 263 139 q 282 172 282 158 l 282 258 q 276 290 281 276 q 260 315 272 304 l 81 453 q 51 492 60 472 q 42 543 42 511 l 42 668 q 56 736 42 704 q 93 792 69 768 q 149 829 117 815 q 217 843 181 843 l 269 843 l 269 843 z "},"t":{"ha":467,"x_min":35,"x_max":432,"o":"m 413 833 q 432 814 432 833 l 432 690 q 413 671 432 671 l 314 671 l 314 19 q 294 0 314 0 l 171 0 q 158 6 164 0 q 151 19 151 11 l 151 671 l 54 671 q 35 690 35 671 l 35 814 q 54 833 35 833 l 413 833 l 413 833 z "},"u":{"ha":500,"x_min":49,"x_max":451,"o":"m 432 833 q 451 814 451 833 l 451 165 q 438 97 451 129 q 400 42 424 65 q 344 4 376 18 q 276 -10 313 -10 l 224 -10 q 156 4 188 -10 q 100 42 124 18 q 63 97 76 65 q 49 165 49 129 l 49 814 q 68 833 49 833 l 192 833 q 211 814 211 833 l 211 172 q 221 149 211 158 q 244 139 231 139 l 256 139 q 279 149 269 139 q 289 172 289 158 l 289 814 q 308 833 289 833 l 432 833 l 432 833 z "},"v":{"ha":525,"x_min":13,"x_max":513,"o":"m 493 833 q 510 814 513 833 l 346 19 q 324 0 343 0 l 201 0 q 179 19 182 0 l 15 814 q 32 833 13 833 l 182 833 q 203 814 200 833 l 260 294 l 265 294 l 322 814 q 343 833 325 833 l 493 833 l 493 833 z "},"w":{"ha":763,"x_min":13,"x_max":750,"o":"m 731 833 q 747 814 750 833 l 597 19 q 575 0 594 0 l 453 0 q 431 19 433 0 l 382 310 l 381 310 l 332 19 q 310 0 329 0 l 188 0 q 165 19 168 0 l 15 814 q 32 833 13 833 l 182 833 q 203 814 200 833 l 251 344 l 257 344 l 310 814 q 331 833 313 833 l 432 833 q 453 814 450 833 l 506 344 l 511 344 l 560 814 q 581 833 563 833 l 731 833 l 731 833 z "},"x":{"ha":525,"x_min":40,"x_max":486,"o":"m 482 19 q 467 0 486 0 l 338 0 q 315 19 318 0 l 263 225 l 210 19 q 188 0 207 0 l 58 0 q 45 6 50 0 q 43 19 40 11 l 157 418 l 43 814 q 45 827 40 821 q 58 833 50 833 l 188 833 q 210 814 207 833 l 263 608 l 315 814 q 338 833 318 833 l 467 833 q 480 827 475 833 q 482 814 485 821 l 368 418 l 482 19 l 482 19 z "},"y":{"ha":514,"x_min":13,"x_max":501,"o":"m 485 833 q 497 827 493 833 q 499 814 501 821 l 339 322 l 339 19 q 319 0 339 0 l 194 0 q 175 19 175 0 l 175 322 l 15 814 q 17 827 13 821 q 29 833 21 833 l 176 833 q 199 814 196 833 l 254 547 l 260 547 l 315 814 q 338 833 318 833 l 485 833 l 485 833 z "},"z":{"ha":490,"x_min":42,"x_max":449,"o":"m 429 156 q 449 136 449 156 l 449 19 q 429 0 449 0 l 61 0 q 48 6 53 0 q 46 19 43 11 l 239 678 l 61 678 q 42 697 42 678 l 42 814 q 61 833 42 833 l 426 833 q 440 827 435 833 q 442 814 444 821 l 249 156 l 429 156 l 429 156 z "},"⁄":{"ha":406,"x_min":-4,"x_max":407,"o":"m 15 0 q 1 18 -4 0 l 290 954 q 315 972 296 972 l 390 972 q 403 966 399 972 q 404 953 407 960 l 115 18 q 90 0 110 0 l 15 0 z "},"•":{"ha":344,"x_min":56,"x_max":289,"o":"m 56 486 q 90 569 56 535 q 172 603 124 603 q 255 569 221 603 q 289 486 289 535 q 255 403 289 438 q 172 369 221 369 q 90 403 124 369 q 56 486 56 438 z "},"„":{"ha":479,"x_min":28,"x_max":451,"o":"m 74 -114 l 74 -93 q 75 -89 74 -92 q 82 -85 79 -85 q 116 -73 94 -85 q 144 -22 138 -61 q 145 -9 146 -17 q 140 1 144 -1 q 130 2 138 4 q 118 0 122 0 q 80 6 94 0 q 53 24 65 13 q 28 88 28 46 q 50 142 28 118 q 113 168 75 168 q 181 140 154 168 q 214 72 208 113 q 217 44 217 58 q 215 17 218 31 q 192 -51 210 -21 q 143 -103 175 -82 q 126 -113 135 -108 q 107 -121 117 -118 q 99 -122 106 -121 q 85 -125 92 -124 q 79 -124 82 -125 q 74 -114 74 -121 m 307 -114 l 307 -93 q 308 -89 307 -92 q 315 -85 313 -85 q 349 -73 328 -85 q 378 -22 371 -61 q 378 -9 379 -17 q 374 1 378 -1 q 363 2 371 4 q 351 0 356 0 q 313 6 328 0 q 286 24 299 13 q 261 88 261 46 q 283 142 261 118 q 346 168 308 168 q 415 140 388 168 q 447 72 442 113 q 451 44 450 58 q 449 17 451 31 q 426 -51 443 -21 q 376 -103 408 -82 q 359 -113 368 -108 q 340 -121 350 -118 q 332 -122 339 -121 q 318 -125 325 -124 q 313 -124 315 -125 q 307 -114 307 -121 z "},"‚":{"ha":301,"x_min":56,"x_max":246,"o":"m 101 -114 l 101 -93 q 103 -89 101 -92 q 110 -85 107 -85 q 144 -73 122 -85 q 172 -22 165 -61 q 173 -9 174 -17 q 168 1 172 -1 q 158 2 165 4 q 146 0 150 0 q 108 6 122 0 q 81 24 93 13 q 56 88 56 46 q 78 142 56 118 q 140 168 103 168 q 209 140 182 168 q 242 72 236 113 q 245 44 244 58 q 243 17 246 31 q 220 -51 238 -21 q 171 -103 203 -82 q 153 -113 163 -108 q 135 -121 144 -118 q 126 -122 133 -121 q 113 -125 119 -124 q 107 -124 110 -125 q 101 -114 101 -121 z "}}}
